# xmcd
#
# Track frame offsets:
#  150
#  12923
#  30438
#
# Disc length: 705 seconds
#
# Revision: 1
# Processed by: cddbd v1.4PL0 Copyright (c) Steve Scherf et al.
# Submitted via: AltoMP3_Maker 3.0
#
DISCID=1502bf03
DTITLE=Aaron Goodvin - Aaron Jake Goodvin
DYEAR=1900
DGENRE=
TTITLE0=Dream and Write a Book
TTITLE1=One More Moment
TTITLE2=Grandpa's Guitar
EXTD=
EXTT0=
EXTT1=
EXTT2=
PLAYORDER=
